<svg xmlns="http://www.w3.org/2000/svg" xmlns:xlink="http://www.w3.org/1999/xlink" width="500" zoomAndPan="magnify" viewBox="0 0 375 374.999991" height="500" preserveAspectRatio="xMidYMid meet" version="1.0"><defs><g/></defs><g fill="#ffffff" fill-opacity="1"><g transform="translate(37.520097, 250.879986)"><g><path d="M 38.066406 1.027344 C 46.210938 1.027344 53.839844 -1.457031 59.839844 -6.429688 L 59.839844 0 L 67.042969 0 L 67.042969 -29.492188 L 42.265625 -29.492188 L 42.265625 -21.863281 L 59.839844 -21.863281 L 59.839844 -17.316406 C 53.839844 -10.117188 46.382812 -6.601562 38.320312 -6.601562 C 24.089844 -6.601562 12.601562 -18.175781 12.601562 -33.179688 C 12.601562 -47.753906 23.320312 -59.753906 38.238281 -59.753906 C 45.953125 -59.753906 52.980469 -56.496094 57.613281 -50.753906 L 63.871094 -56.410156 C 57.613281 -63.527344 48.523438 -67.386719 38.152344 -67.386719 C 19.632812 -67.386719 4.113281 -53.324219 4.113281 -33.179688 C 4.113281 -13.03125 19.632812 1.027344 38.066406 1.027344 Z M 38.066406 1.027344 "/></g></g></g><g fill="#ffffff" fill-opacity="1"><g transform="translate(109.016458, 250.879986)"><g><path d="M 8.488281 0 L 16.890625 0 L 16.890625 -26.492188 L 31.976562 -26.492188 L 46.210938 0 L 55.8125 0 L 39.867188 -29.148438 C 46.980469 -31.378906 52.039062 -37.980469 52.039062 -46.894531 C 52.039062 -55.296875 47.410156 -62.242188 40.980469 -64.898438 C 38.492188 -65.757812 35.148438 -66.355469 28.546875 -66.355469 L 8.488281 -66.355469 Z M 16.890625 -58.8125 L 28.207031 -58.8125 C 36.949219 -58.8125 43.550781 -56.324219 43.550781 -46.894531 C 43.550781 -39.09375 38.492188 -34.035156 30.777344 -34.035156 L 16.890625 -34.035156 Z M 16.890625 -58.8125 "/></g></g></g><g fill="#ffffff" fill-opacity="1"><g transform="translate(167.568034, 250.879986)"><g><path d="M 8.832031 0 L 50.667969 0 L 50.667969 -7.542969 L 17.316406 -7.542969 L 17.316406 -30.261719 L 38.835938 -30.261719 L 38.835938 -37.636719 L 17.316406 -37.636719 L 17.316406 -58.8125 L 50.667969 -58.8125 L 50.667969 -66.355469 L 8.832031 -66.355469 Z M 8.832031 0 "/></g></g></g><g fill="#ffffff" fill-opacity="1"><g transform="translate(221.74753, 250.879986)"><g><path d="M 8.832031 0 L 50.667969 0 L 50.667969 -7.542969 L 17.316406 -7.542969 L 17.316406 -30.261719 L 38.835938 -30.261719 L 38.835938 -37.636719 L 17.316406 -37.636719 L 17.316406 -58.8125 L 50.667969 -58.8125 L 50.667969 -66.355469 L 8.832031 -66.355469 Z M 8.832031 0 "/></g></g></g><g fill="#ffffff" fill-opacity="1"><g transform="translate(275.927026, 250.879986)"><g><path d="M 16.117188 0 L 16.117188 -51.867188 L 46.636719 0 L 53.410156 0 L 53.410156 -66.355469 L 45.179688 -66.355469 L 45.179688 -17.230469 L 17.316406 -66.355469 L 7.886719 -66.355469 L 7.886719 0 Z M 16.117188 0 "/></g></g></g><path fill="#25995c" d="M 179.855469 109.96875 C 139.191406 109.785156 117.363281 128.777344 115.492188 168.09375 C 115.46875 168.589844 114.746094 168.613281 114.679688 168.125 C 112.863281 155.28125 113.214844 143.574219 116.472656 133.394531 C 127.230469 99.808594 168.261719 95.402344 197.375 106.03125 C 198.824219 106.5625 199.117188 108.433594 197.914062 109.398438 C 175.203125 127.5625 178.292969 177.140625 123.023438 155.65625 C 131.65625 128.816406 149.351562 112.1875 179.855469 109.96875 " fill-opacity="1" fill-rule="evenodd"/><g fill="#ffffff" fill-opacity="1"><g transform="translate(37.500002, 169.133654)"><g><path d="M 38.066406 1.027344 C 46.210938 1.027344 53.839844 -1.457031 59.839844 -6.429688 L 59.839844 0 L 67.042969 0 L 67.042969 -29.492188 L 42.265625 -29.492188 L 42.265625 -21.863281 L 59.839844 -21.863281 L 59.839844 -17.316406 C 53.839844 -10.117188 46.382812 -6.601562 38.320312 -6.601562 C 24.089844 -6.601562 12.601562 -18.175781 12.601562 -33.179688 C 12.601562 -47.753906 23.320312 -59.753906 38.238281 -59.753906 C 45.953125 -59.753906 52.980469 -56.496094 57.613281 -50.753906 L 63.871094 -56.410156 C 57.613281 -63.527344 48.523438 -67.386719 38.152344 -67.386719 C 19.632812 -67.386719 4.113281 -53.324219 4.113281 -33.179688 C 4.113281 -13.03125 19.632812 1.027344 38.066406 1.027344 Z M 38.066406 1.027344 "/></g></g></g></svg>