<svg xmlns="http://www.w3.org/2000/svg" xmlns:xlink="http://www.w3.org/1999/xlink" width="500" zoomAndPan="magnify" viewBox="0 0 375 374.999991" height="500" preserveAspectRatio="xMidYMid meet" version="1.0"><defs><g/></defs><g fill="#000000" fill-opacity="1"><g transform="translate(37.504682, 251.819309)"><g><path d="M 38.070312 1.027344 C 46.214844 1.027344 53.84375 -1.457031 59.847656 -6.429688 L 59.847656 0 L 67.046875 0 L 67.046875 -29.496094 L 42.269531 -29.496094 L 42.269531 -21.863281 L 59.847656 -21.863281 L 59.847656 -17.320312 C 53.84375 -10.117188 46.386719 -6.601562 38.324219 -6.601562 C 24.09375 -6.601562 12.605469 -18.175781 12.605469 -33.179688 C 12.605469 -47.757812 23.320312 -59.761719 38.238281 -59.761719 C 45.957031 -59.761719 52.988281 -56.503906 57.617188 -50.757812 L 63.875 -56.417969 C 57.617188 -63.535156 48.527344 -67.390625 38.15625 -67.390625 C 19.632812 -67.390625 4.117188 -53.332031 4.117188 -33.179688 C 4.117188 -13.03125 19.632812 1.027344 38.070312 1.027344 Z M 38.070312 1.027344 "/></g></g></g><g fill="#000000" fill-opacity="1"><g transform="translate(109.007089, 251.819309)"><g><path d="M 8.488281 0 L 16.890625 0 L 16.890625 -26.492188 L 31.980469 -26.492188 L 46.214844 0 L 55.816406 0 L 39.867188 -29.152344 C 46.984375 -31.378906 52.042969 -37.984375 52.042969 -46.898438 C 52.042969 -55.300781 47.414062 -62.246094 40.984375 -64.90625 C 38.496094 -65.761719 35.152344 -66.363281 28.550781 -66.363281 L 8.488281 -66.363281 Z M 16.890625 -58.816406 L 28.207031 -58.816406 C 36.953125 -58.816406 43.554688 -56.332031 43.554688 -46.898438 C 43.554688 -39.097656 38.496094 -34.039062 30.78125 -34.039062 L 16.890625 -34.039062 Z M 16.890625 -58.816406 "/></g></g></g><g fill="#000000" fill-opacity="1"><g transform="translate(167.563618, 251.819309)"><g><path d="M 8.832031 0 L 50.671875 0 L 50.671875 -7.546875 L 17.320312 -7.546875 L 17.320312 -30.265625 L 38.839844 -30.265625 L 38.839844 -37.640625 L 17.320312 -37.640625 L 17.320312 -58.816406 L 50.671875 -58.816406 L 50.671875 -66.363281 L 8.832031 -66.363281 Z M 8.832031 0 "/></g></g></g><g fill="#000000" fill-opacity="1"><g transform="translate(221.747693, 251.819309)"><g><path d="M 8.832031 0 L 50.671875 0 L 50.671875 -7.546875 L 17.320312 -7.546875 L 17.320312 -30.265625 L 38.839844 -30.265625 L 38.839844 -37.640625 L 17.320312 -37.640625 L 17.320312 -58.816406 L 50.671875 -58.816406 L 50.671875 -66.363281 L 8.832031 -66.363281 Z M 8.832031 0 "/></g></g></g><g fill="#000000" fill-opacity="1"><g transform="translate(275.931768, 251.819309)"><g><path d="M 16.117188 0 L 16.117188 -51.871094 L 46.640625 0 L 53.417969 0 L 53.417969 -66.363281 L 45.183594 -66.363281 L 45.183594 -17.234375 L 17.320312 -66.363281 L 7.886719 -66.363281 L 7.886719 0 Z M 16.117188 0 "/></g></g></g><path fill="#25995c" d="M 179.855469 109.96875 C 139.191406 109.785156 117.363281 128.777344 115.492188 168.09375 C 115.46875 168.589844 114.746094 168.613281 114.679688 168.125 C 112.863281 155.28125 113.214844 143.574219 116.472656 133.394531 C 127.230469 99.808594 168.261719 95.402344 197.375 106.03125 C 198.824219 106.5625 199.117188 108.433594 197.914062 109.398438 C 175.203125 127.5625 178.292969 177.140625 123.023438 155.65625 C 131.65625 128.816406 149.351562 112.1875 179.855469 109.96875 " fill-opacity="1" fill-rule="evenodd"/><g fill="#000000" fill-opacity="1"><g transform="translate(37.502152, 170.072984)"><g><path d="M 38.070312 1.027344 C 46.214844 1.027344 53.84375 -1.457031 59.847656 -6.429688 L 59.847656 0 L 67.046875 0 L 67.046875 -29.496094 L 42.269531 -29.496094 L 42.269531 -21.863281 L 59.847656 -21.863281 L 59.847656 -17.320312 C 53.84375 -10.117188 46.386719 -6.601562 38.324219 -6.601562 C 24.09375 -6.601562 12.605469 -18.175781 12.605469 -33.179688 C 12.605469 -47.757812 23.320312 -59.761719 38.238281 -59.761719 C 45.957031 -59.761719 52.988281 -56.503906 57.617188 -50.757812 L 63.875 -56.417969 C 57.617188 -63.535156 48.527344 -67.390625 38.15625 -67.390625 C 19.632812 -67.390625 4.117188 -53.332031 4.117188 -33.179688 C 4.117188 -13.03125 19.632812 1.027344 38.070312 1.027344 Z M 38.070312 1.027344 "/></g></g></g></svg>